<?xml version="1.0" encoding="UTF-8" standalone="no"?> <svg id="Layer_1" data-name="Layer 1" xmlns="http://www.w3.org/2000/svg" width="48" height="48" viewBox="0 0 48 48"><title>Chart_2</title><path d="M36.15,30.48H14.28V15.09a.81.81,0,0,0-.81-.81H11.85a.81.81,0,0,0-.81.81v17a1.63,1.63,0,0,0,1.62,1.62H36.15a.81.81,0,0,0,.81-.81V31.29A.81.81,0,0,0,36.15,30.48Z"/><path d="M34.53,15.9h-6A1.21,1.21,0,0,0,27.69,18l1.64,1.64-3.71,3.72-3.71-3.72a1.64,1.64,0,0,0-2.3,0l-3.47,3.48a.81.81,0,0,0,0,1.15l1.14,1.14a.81.81,0,0,0,1.15,0l2.33-2.33,3.71,3.72a1.64,1.64,0,0,0,2.3,0l4.86-4.86,1.64,1.64a1.21,1.21,0,0,0,2.07-.86v-6A.81.81,0,0,0,34.53,15.9Z"/></svg>